<?xml version="1.0" encoding="utf-8"?>
<!-- Generator: Adobe Illustrator 16.0.4, SVG Export Plug-In . SVG Version: 6.00 Build 0)  -->
<!DOCTYPE svg PUBLIC "-//W3C//DTD SVG 1.1//EN" "http://www.w3.org/Graphics/SVG/1.1/DTD/svg11.dtd">
<svg version="1.1" id="Layer_1" xmlns="http://www.w3.org/2000/svg" xmlns:xlink="http://www.w3.org/1999/xlink" x="0px" y="0px"
	 width="132.814px" height="42.385px" viewBox="0 0 132.814 42.385" enable-background="new 0 0 132.814 42.385" preserveAspectRatio="none" xml:space="preserve">
<g>
	<path fill="#7FAF16" d="M129.657,5.087c0.354,0.242,0.396-0.098,0.483-0.111C129.468,4.657,129.632,5.168,129.657,5.087z"/>
	<polygon fill="#7FAF16" points="123.224,3.904 122.301,4.143 123.105,4.023 	"/>
	<path fill="#7FAF16" d="M120.506,3.975l0.159,0.127l0.466-0.416c-1.214,0.029-2.792,0.264-3.633,0.096
		C118.006,4.328,119.517,3.75,120.506,3.975z"/>
	<path fill="#7FAF16" d="M115.13,2.575c-0.12,0-0.285-0.005-0.566-0.027c0.178,0.213-0.646,0.163,0.69,0.083
		C115.188,2.606,115.169,2.592,115.13,2.575z"/>
	<path fill="#7FAF16" d="M115.13,2.575C115.717,2.575,114.751,2.39,115.13,2.575L115.13,2.575z"/>
	<path fill="#7FAF16" d="M112.421,2.625l0.775-0.167c-0.157-0.127-0.844-0.173-0.587-0.256
		C111.815,2.29,111.976,2.415,112.421,2.625z"/>
	<path fill="#7FAF16" d="M112.473,2.878c-0.073,0.157,0.098,0.007,0.461-0.095l-0.852,0.148c-0.069-0.053-0.176-0.072-0.402,0.072
		l0.401-0.072C112.192,3.02,112.199,3.193,112.473,2.878z"/>
	<path fill="#7FAF16" d="M113.621,3.257c1.478-0.035,1.27-0.417-0.208-0.38C113.842,3.005,114.399,3.092,113.621,3.257z"/>
	<path fill="#7FAF16" d="M118.278,4.333c-0.253,0.083-1.109-0.174-1.078-0.005l0.573,0.172L118.278,4.333z"/>
	<path fill="#7FAF16" d="M107.926,2.72l0.572-0.121c-0.291-0.083-0.845-0.165-0.881-0.334C107.568,2.378,107.871,2.573,107.926,2.72
		l-0.857,0.181C107.83,2.937,107.972,2.846,107.926,2.72z"/>
	<polygon fill="#7FAF16" points="112.939,3.212 111.259,3.596 111.529,3.595 	"/>
	<polygon fill="#7FAF16" points="104.847,1.94 103.979,2.323 104.359,2.195 	"/>
	<path fill="#7FAF16" d="M102.196,2.204c0.361-0.212-0.484-0.378-0.104-0.506c-0.588,0.029-1.092,0.208-1.546,0.369
		C101.026,1.981,101.538,2.014,102.196,2.204z"/>
	<path fill="#7FAF16" d="M99.784,2.299c0.24-0.048,0.49-0.138,0.761-0.233C100.29,2.112,100.038,2.182,99.784,2.299z"/>
	<path fill="#7FAF16" d="M105.618,2.819c-0.065-0.07-0.189-0.252-0.666-0.337l0.33,0.326C105.384,2.812,105.5,2.815,105.618,2.819z"
		/>
	<path fill="#7FAF16" d="M104.557,2.778c0.093,0.005,0.314,0.018,0.736,0.041l-0.013-0.01
		C104.918,2.793,104.666,2.783,104.557,2.778z"/>
	<path fill="#7FAF16" d="M105.702,2.822c-0.031-0.001-0.054-0.002-0.085-0.003C105.649,2.852,105.667,2.862,105.702,2.822z"/>
	<path fill="#7FAF16" d="M109.3,3.267c-0.505,0.17-1.553,0.345-0.548,0.635C109.117,3.688,108.542,3.523,109.3,3.267z"/>
	<path fill="#7FAF16" d="M107.088,3.023l-0.978,0.207l0.904,0.089C107,3.234,106.838,3.108,107.088,3.023z"/>
	<polygon fill="#7FAF16" points="106.111,3.23 105.776,3.197 105.666,3.324 	"/>
	<path fill="#7FAF16" d="M101.333,2.626c-0.394,0.133-0.822,0.137-1.306,0.151c0.518,0.072,1.052,0.115,1.562,0.123
		C101.661,2.801,101.888,2.624,101.333,2.626z"/>
	<path fill="#7FAF16" d="M103.256,2.748c-0.027,0.005-0.061,0.012-0.087,0.017C103.223,2.793,103.266,2.802,103.256,2.748z"/>
	<polygon fill="#7FAF16" points="95.346,2.769 95.364,2.714 95.27,2.71 	"/>
	<path fill="#7FAF16" d="M101.674,2.961c0.389,0.069,0.622-0.006,0.846-0.101c-0.292,0.027-0.601,0.043-0.932,0.04
		C101.555,2.946,101.549,2.975,101.674,2.961z"/>
	<path fill="#7FAF16" d="M98.454,2.426c0.202,0.071,0.432,0.131,0.673,0.188C98.929,2.509,98.527,2.344,98.454,2.426z"/>
	<path fill="#7FAF16" d="M103.098,2.661c-0.127-0.071-0.111-0.037-0.059,0.013L103.098,2.661z"/>
	<path fill="#7FAF16" d="M103.169,2.765c-0.048-0.024-0.096-0.059-0.13-0.091c-0.201,0.043-0.36,0.119-0.52,0.187
		C102.757,2.839,102.978,2.809,103.169,2.765z"/>
	<path fill="#7FAF16" d="M97.048,2.816l0.368-0.033c-0.419-0.056-0.717-0.178-1.268-0.416c-0.613,0.139-0.741,0.248-0.784,0.347
		l1.81,0.059L97.048,2.816z"/>
	<path fill="#7FAF16" d="M99.07,2.809c-0.292,0.318-1.177,0.441-0.64,0.8c1.081-0.004,0.76-0.257,1.408-0.386
		c-1.745,0.05,0.503-0.172-0.755-0.377c0.344-0.049,0.651-0.06,0.942-0.069c-0.312-0.044-0.615-0.166-0.899-0.23
		c0.015,0.008,0.025-0.047,0.04-0.047h0.008l-0.002,0.072c0.075,0.042,0.099,0.1,0.015,0.075c-0.006,0.004-0.026,0.022-0.037,0.023
		c-0.012,0.044-0.045,0.091-0.08,0.128c-0.504-0.075-0.077-0.081,0.08-0.116c0.007-0.016,0.021-0.028,0.022-0.045l-0.006-0.003
		l-1.75,0.148C97.786,2.832,98.25,2.832,99.07,2.809z"/>
	<path fill="#7FAF16" d="M106.306,3.646c-0.017-0.024-0.034-0.046-0.052-0.071C106.229,3.584,106.255,3.611,106.306,3.646z"/>
	<path fill="#7FAF16" d="M103.033,3.673l-1.456,0.134l0.736,0.292l-0.035-0.169C103.104,4.01,102.928,3.801,103.033,3.673z"/>
	<polygon fill="#7FAF16" points="95.301,2.208 94.458,2.682 95.106,2.547 	"/>
	<polygon fill="#7FAF16" points="93.29,2.274 92.79,2.448 93.217,2.57 	"/>
	<path fill="#7FAF16" d="M45.584,1.626l0.191,0.325c0.434-0.059,0.767-0.023,1.05,0.047C46.204,1.722,45.51,1.292,45.584,1.626z"/>
	<path fill="#7FAF16" d="M73.88,2.457c-0.534-0.14-0.96-0.204-1.334-0.23C73.189,2.43,73.707,2.724,73.88,2.457z"/>
	<path fill="#7FAF16" d="M106.079,4.268c0.014-0.044-0.048-0.046-0.139-0.039C105.984,4.244,106.039,4.251,106.079,4.268z"/>
	<path fill="#7FAF16" d="M85.622,2.353C86.022,2.336,85.685,2.318,85.622,2.353L85.622,2.353z"/>
	<path fill="#7FAF16" d="M87.392,3.816c0.034-0.078,0.09-0.128,0.162-0.157C87.468,3.695,87.403,3.741,87.392,3.816z"/>
	<path fill="#7FAF16" d="M86.222,2.507c-0.15-0.041-0.323-0.076-0.511-0.102C85.793,2.431,85.949,2.464,86.222,2.507z"/>
	<path fill="#7FAF16" d="M86.143,2.352c0.138,0.014,0.246,0.025,0.35,0.035C86.543,2.333,86.499,2.299,86.143,2.352z"/>
	<path fill="#7FAF16" d="M85.621,2.353c-0.116,0.002-0.282,0.006-0.558,0.012c0.229-0.003,0.443,0.015,0.648,0.04
		C85.633,2.382,85.6,2.364,85.621,2.353z"/>
	<path fill="#7FAF16" d="M89.768,2.23l-0.869,0.086c0.42-0.014,0.569,0.066,0.78,0.126C89.661,2.357,89.498,2.233,89.768,2.23z"/>
	<path fill="#7FAF16" d="M91.67,3.597c0.184-0.424-0.466-0.29-1.112-0.156c0.064,0.305,0.611,0.207,1.219,0.157
		C91.741,3.598,91.706,3.601,91.67,3.597z"/>
	<path fill="#7FAF16" d="M92.481,3.586c0.072-0.17-0.228-0.038-0.562,0.002C92.107,3.577,92.297,3.569,92.481,3.586z"/>
	<path fill="#7FAF16" d="M84.302,2.59c0.287,0.081,0.185-0.387,0.347-0.262C84.975,1.944,82.722,2.778,84.302,2.59z"/>
	<polygon fill="#7FAF16" points="90.481,4.37 91.039,4.448 90.825,4.07 	"/>
	<path fill="#7FAF16" d="M86.242,4.125l0.97,0.114c-0.014-0.064,0.11-0.099,0.262-0.126C86.875,4.095,86.219,4.013,86.242,4.125z"/>
	<path fill="#7FAF16" d="M87.473,4.113c0.312,0.01,0.608,0.005,0.783-0.055C88.087,4.061,87.724,4.07,87.473,4.113z"/>
	<path fill="#7FAF16" d="M75.312,4.188c0.255-0.083,0.648-0.123,0.487-0.252l-1.061,0.081C74.628,4.144,74.917,4.229,75.312,4.188z"
		/>
	<path fill="#7FAF16" d="M129,8.169c0-0.003,0-0.007,0-0.011c0,0.003-0.16,0.004-0.166,0.007c-0.029-0.007-0.133-0.016-0.164-0.022
		l0.062-0.07c-0.177,0.001-0.535,0.003-0.649-0.121l0.009,0.089c-0.151-0.026-0.305-0.05-0.455-0.072
		c-0.396-0.053-0.795-0.089-1.19-0.125c-0.32-0.09-0.655-0.161-1-0.175c0.704-0.153,2.038,0.279,2.278-0.094l-0.693,0.002
		c0.557-0.246,0.128-0.654-0.33-1.087c0.692,0.061,1.399,0.141,2.214,0.289C127.864,6.07,127,5.709,126,5.495
		c0-0.004,0-0.007,0-0.011c0,0.003,0.004,0.004-0.002,0.007c-0.355-0.083-0.699-0.147-1.049-0.197
		c-0.396-0.053-0.789-0.089-1.186-0.125c-0.525-0.148-1.087-0.244-1.675-0.119c-0.176-0.009-0.35-0.019-0.525-0.025
		c0.079-0.046,0.138-0.096,0.062-0.16c-0.098,0.063-0.202,0.11-0.311,0.151c-0.871-0.033-1.74-0.054-2.603-0.083l-1.472-0.038
		c-1.366-0.104-2.576-0.279-4.603-0.427l0.201,0.312l-0.33-0.009c-0.025,0-0.051-0.001-0.076-0.001
		c-0.32-0.057-0.46-0.135-0.689-0.203c-0.128,0.088-0.156,0.147-0.127,0.189c-1.057-0.022-2.115-0.034-3.173-0.055
		c-0.273-0.044-0.504-0.108-0.664-0.205c0.263-0.082,0.825-0.213,0.071-0.379l-0.124,0.042c-0.556-0.098-1.226-0.378-1.421-0.513
		c0.182,0.257,0.365,0.459,0.787,0.727c0.128-0.043,0.236-0.17,0.647-0.13c0.334,0.097,0.041,0.149,0.018,0.243
		c-0.064-0.042-0.118-0.088-0.157-0.141c-0.76-0.005-0.241,0.22-0.326,0.337c-0.165-0.003-0.331-0.006-0.497-0.009l-0.179-0.146
		l-0.129,0.141c-0.261-0.004-0.521-0.009-0.78-0.013c-0.238-0.108-0.377-0.247-0.392-0.358c0.164,0.022,0.466-0.052,0.642-0.068
		c-0.875-0.264-2.47,0.084-2.77-0.002l0.989,0.139c-2.011,0.144-4.334,0.035-6.49,0.122L97.638,4.33
		c-0.468,0.003-0.811,0.104-0.537,0.18l-1.267-0.013c0.783-0.244,0.246-1.187-0.489-1.728c-0.028,0.129-0.029,0.249-0.925,0.416
		c0.311,0.165,1.979,0.399,1.222,0.66c-1.186,0.141-0.969-0.115-1.543-0.278C94.53,3.9,93.01,4.055,92.835,4.468L89.47,4.435
		c0.024-0.01,0.031-0.019,0.065-0.029c-0.07,0.01-0.128,0.019-0.192,0.028l-3.702-0.037c0.045-0.044,0.044-0.089-0.046-0.138
		l-0.667,0.05c-0.61-0.331,1.26-0.437,0.418-0.598c0.897-0.219,1.905-0.569,3.162-0.373l0.231,0.463
		c-0.025-0.135-0.82-0.282-1.176-0.146c0.527-0.198,1.924,0.642,2.507,0.045l-0.88-0.327c0.901-0.222,2.019-0.699,3.132-0.543
		c-0.503-0.459-0.258,0.049-1.045-0.49c0.681,0.668-2.855-0.056-1.759,0.649c-0.807-0.624-1.406-0.275-2.464-0.811
		c0.031,0.152,0.374,0.294-0.562,0.21c-0.044,0.044-0.144,0.099-0.207,0.131c-0.028-0.005-0.039-0.007-0.063-0.012l0.051,0.019
		c-0.041,0.022-0.044,0.027,0.021,0.006c0.222,0.069,0.401,0.15,0.474,0.236c-0.469,0.343-1.959,0.318-2.465,0.493
		c-0.556-0.078,0.234-0.172-0.067-0.337l-0.756,0.262c-0.071-0.337-1.471-0.574-0.159-0.758L82.141,2.4
		c-0.692-0.196-1.646-0.28-2.237-0.144c-0.555-0.079-1.408,0.359-0.922,0.1l-1.851,0.19l-0.017-0.084
		c-1.822-0.075-3.759,0.468-5.833-0.188c0.393-0.045,0.787-0.079,1.265-0.047c-0.476-0.151-1.021-0.25-1.548-0.037
		c0.094,0.035,0.185,0.054,0.28,0.083c-0.614,0.07-1.251,0.158-2.273,0.037l-0.196-0.297c-0.789,0.082-2.359-0.35-2.703-0.055
		c-0.83-0.816-3.826-0.25-5.219-0.399l-0.058,0.38c-0.958-0.033-1.878,0.064-3.069,0.202l0.07,0.337
		c-1.026,0.264-2.632-0.27-4.253-0.255c0.11-0.127,0.521-0.089,0.812-0.008c-1.938-0.793-4.077,0.546-5.829-0.014
		c-0.437,0.123-0.753,0.082-1.058-0.003c0.04-0.001,0.076-0.007,0.108-0.018c-0.045-0.001-0.111-0.002-0.179-0.004
		c-0.193-0.057-0.391-0.124-0.606-0.178c0.182,0.082,0.357,0.149,0.509,0.18c-0.336,0.007-0.847,0.049-1.347,0.134l-0.213-0.361
		c-0.04,0.003-0.072,0.006-0.115,0.01c-0.491-0.133-0.395,0.171-0.134,0.443c-0.252,0.059-0.483,0.131-0.662,0.218
		c-0.398-0.582-1.314,0.198-1.856-0.424c-0.338,0.304-2.516,0.23-2.785,0.868c-0.017-0.083-0.164-0.122,0.106-0.128
		c-0.557-0.073-1.115-0.141-1.615,0.03l-0.235-0.462l-0.406,0.201c-0.002-0.022,0.001-0.036-0.004-0.064
		c-0.374-0.028-0.816,0.06-1.192,0.032c0.403-0.03,0.72,0.096,0.928,0.165l-0.546,0.271c-0.738-0.288-1.044-0.454-0.308-0.799
		c-0.656,0.193-1.021,0.269-1.301,0.314c-0.062-0.035-0.138-0.074-0.244-0.123c-0.01,0.065-0.036,0.369-0.074,0.418
		C35.029,2.965,34.73,2.5,34.048,3.5c-0.015,0-0.03,0-0.044,0l0.071-0.528c-0.539,0.005-1.404,0.27-1.727,0.021
		c-1.201-0.578-5.965-0.208-9.053-0.767c0.588,0.881-1.432-0.438-1.565,0.237c-0.177-0.209-0.606-0.345-0.103-0.519
		c-1.582,0.185-2.366-0.363-3.466,0.196c-0.177-0.21,0.343-0.303,0.185-0.428c-0.126,0.039-0.508,0.182-0.673,0.063
		C17.511,1.657,17.91,1.595,18.165,1.5c-1.638,0.071-1.807,0.712-1.928,1.313c-0.523-0.168-0.878-0.193-1.222-0.096
		c-0.093-0.108-0.162-0.223-0.232-0.331c-0.544-0.053-0.556,0.019-0.439,0.131c-0.936-0.041-3.179-0.133-3.218,0.288
		c-0.159-0.103-0.635-0.039-0.853,0.019c0.049-0.032,0.068-0.067-0.014-0.113L9.915,2.847C9.713,2.846,9.537,2.844,9.383,2.843
		c0.003-0.005,0.005-0.011,0.008-0.015C9.362,2.832,9.347,2.839,9.323,2.844c-0.178,0-0.348,0.006-0.55,0.03
		C8.569,2.9,8.32,2.904,8.113,2.973c-0.207,0.07-0.45,0.153-0.764,0.261l0.372-0.036C7.693,3.256,7.662,3.301,7.63,3.347
		C7.549,3.319,7.466,3.29,7.375,3.254c0.012,0.104,0.024,0.21,0.036,0.315C7.312,3.635,7.203,3.681,7.076,3.715L4.173,4.486
		l3.042,0.443c0.11,0.016,0.231,0.045,0.359,0.075c0.012,0.103,0.023,0.202,0.035,0.307c0.332-0.005,0.717,0.001,1.089-0.049
		C9.177,5.384,9.48,5.443,9.687,5.469C9.683,5.494,9.684,5.52,9.698,5.546c0.092-0.023,0.158-0.04,0.239-0.06
		c0.304,0.002,0.395-0.073,1.179,0.095c-0.112,0.013-0.226,0.031-0.328,0.065c-0.207,0.07-0.45,0.153-0.764,0.261l0.372-0.036
		c-0.028,0.058-0.06,0.104-0.091,0.149c-0.081-0.028-0.164-0.058-0.254-0.093c0.012,0.104,0.024,0.21,0.036,0.314
		C9.987,6.309,9.877,6.355,9.75,6.389L7.414,7.01C7.236,7.019,7.065,7.045,6.95,7.075c0.049-0.032,0.066-0.067-0.015-0.112
		L6.592,7.099C6.389,7.098,6.212,7.095,6.059,7.095c0.003-0.005,0.006-0.012,0.009-0.016C6.037,7.083,6.021,7.09,5.996,7.096
		c-0.176,0-0.345,0.005-0.546,0.029c-0.204,0.027-0.453,0.03-0.66,0.099c-0.207,0.071-0.45,0.153-0.764,0.261l0.372-0.036
		c-0.028,0.058-0.06,0.104-0.091,0.15C4.225,7.571,4.142,7.541,4.051,7.506C4.063,7.61,4.075,7.716,4.087,7.82
		C3.989,7.886,3.879,7.932,3.752,7.966L0.85,8.737L3.892,9.18c0.11,0.017,0.231,0.045,0.359,0.075
		c0.012,0.104,0.023,0.202,0.035,0.307c0.331-0.005,0.716,0.001,1.088-0.049c0.052,0.013,0.109,0.028,0.157,0.04
		C5.493,9.566,5.457,9.581,5.416,9.592l-2.903,0.771l1.827,0.266c-0.099,0.034-0.198,0.067-0.315,0.108l0.372-0.036
		c-0.028,0.058-0.06,0.104-0.091,0.15c-0.081-0.028-0.164-0.058-0.255-0.093c0.012,0.104,0.024,0.21,0.036,0.314
		c-0.098,0.066-0.208,0.112-0.334,0.146L0.85,11.989l3.042,0.443c0.11,0.016,0.231,0.045,0.359,0.075
		c0.012,0.103,0.023,0.202,0.035,0.307c0.331-0.004,0.716,0.001,1.088-0.049c0.137,0.035,0.261,0.065,0.37,0.09l-0.049,0.021
		c-0.203,0.002-0.379,0.003-0.534,0.005c0.003-0.005,0.006-0.012,0.008-0.016c-0.03,0.004-0.045,0.012-0.07,0.018
		c-0.176,0.004-0.344,0.012-0.544,0.039c-0.203,0.03-0.452,0.037-0.657,0.109c-0.205,0.074-0.446,0.161-0.757,0.274l0.37-0.042
		c-0.027,0.059-0.058,0.104-0.089,0.151c-0.081-0.026-0.165-0.055-0.255-0.088c0.014,0.104,0.027,0.209,0.041,0.313
		c-0.097,0.067-0.206,0.115-0.332,0.151L0,14.604l2.676,0.348l-0.163,0.043l0.89,0.129c0.011,0.083,0.021,0.163,0.032,0.247
		c0.33-0.009,0.713-0.01,1.081-0.065c0.481,0.115,0.785,0.169,0.992,0.191c-0.003,0.025-0.001,0.051,0.013,0.077
		c0.09-0.024,0.154-0.041,0.234-0.062c0.046,0,0.087-0.002,0.126-0.005c0.011,0.002,0.022,0.005,0.033,0.008
		c0.012,0.103,0.023,0.202,0.035,0.307c0.331-0.005,0.716,0.001,1.088-0.049c0.183,0.047,0.349,0.087,0.484,0.117l-2.574,0.684
		l0.097,0.014c-0.087,0.012-0.175,0.023-0.254,0.05c-0.207,0.07-0.45,0.153-0.764,0.261l0.372-0.036
		c-0.028,0.058-0.06,0.104-0.091,0.149c-0.081-0.027-0.164-0.057-0.255-0.092c0.012,0.104,0.024,0.21,0.036,0.314
		c-0.098,0.065-0.208,0.112-0.334,0.146L0.85,18.149l3.042,0.443c0.11,0.016,0.231,0.045,0.359,0.075
		c0.012,0.103,0.023,0.202,0.035,0.307c0.318-0.004,0.688-0.001,1.046-0.045l-2.818,0.749l0.119,0.017l-0.119,0.032l3.042,0.443
		c0.063,0.009,0.132,0.025,0.2,0.04l-1.582,0.42l1.659,0.242l-2.288,0.607l2.178,0.317c0.009,0.081,0.019,0.163,0.028,0.244
		c-0.098,0.066-0.208,0.112-0.334,0.146l-2.903,0.771L5.555,23.4c0.055,0.008,0.116,0.022,0.175,0.035
		c0.005,0.045,0.01,0.09,0.015,0.135c-0.097,0.064-0.205,0.11-0.33,0.143l-2.903,0.771l0.119,0.018l-0.119,0.031l3.042,0.443
		C5.614,24.985,5.678,25,5.742,25.015c0.003,0.026,0.006,0.054,0.009,0.081c-0.099,0.065-0.208,0.111-0.335,0.145l-2.903,0.771
		l3.042,0.443c0.054,0.008,0.112,0.021,0.169,0.034c0.005,0.047,0.011,0.094,0.016,0.14c-0.096,0.062-0.202,0.107-0.324,0.141
		l-2.903,0.77l0.242,0.035l-0.242,0.064l3.042,0.443c0.11,0.016,0.231,0.044,0.359,0.074c0.012,0.104,0.023,0.202,0.035,0.307
		c0.33-0.004,0.714,0.001,1.085-0.05c0.48,0.123,0.785,0.184,0.992,0.208c-0.004,0.026-0.003,0.052,0.012,0.078
		c0.091-0.023,0.157-0.039,0.237-0.06c0.228,0.003,0.336-0.039,0.702,0.009l-1.792,0.477c-0.025,0.003-0.047,0.003-0.073,0.006
		c-0.204,0.027-0.453,0.029-0.66,0.1s-0.45,0.152-0.764,0.26l0.372-0.035c-0.028,0.059-0.06,0.104-0.091,0.149
		c-0.081-0.028-0.164-0.058-0.255-0.093c0.012,0.104,0.024,0.21,0.036,0.314c-0.098,0.066-0.208,0.112-0.334,0.146l-2.903,0.77
		l3.042,0.443c0.057,0.009,0.119,0.023,0.181,0.037c0.005,0.043,0.01,0.088,0.015,0.131C5.652,31.42,5.542,31.466,5.416,31.5
		l-2.903,0.77l3.042,0.443c0.11,0.017,0.231,0.045,0.359,0.076c0.012,0.103,0.023,0.202,0.035,0.307
		c0.33-0.006,0.714,0.001,1.085-0.05c0.024,0.007,0.051,0.014,0.074,0.02c-0.011,0.003-0.021,0.008-0.033,0.011l-2.903,0.771
		l3.042,0.443c0.11,0.016,0.231,0.044,0.359,0.074c0.012,0.104,0.023,0.202,0.035,0.307c0.23-0.003,0.486-0.007,0.746-0.021
		l-0.101,0.04c-0.202-0.002-0.378-0.005-0.531-0.005c0.002-0.005,0.005-0.011,0.008-0.015c-0.027,0.004-0.041,0.011-0.063,0.015
		c-0.18,0.001-0.35,0.006-0.555,0.03c-0.204,0.027-0.453,0.029-0.66,0.1s-0.45,0.152-0.764,0.26l0.372-0.035
		C6.033,35.1,6.001,35.145,5.97,35.19c-0.081-0.027-0.164-0.058-0.255-0.093c0.012,0.104,0.024,0.21,0.036,0.314
		c-0.098,0.066-0.208,0.112-0.334,0.146l-2.903,0.77l3.042,0.443c0.11,0.017,0.231,0.045,0.359,0.076
		c0.012,0.103,0.023,0.202,0.035,0.307c0.318-0.006,0.686-0.002,1.043-0.046l-2.819,0.749l3.042,0.441
		c0.11,0.017,0.231,0.045,0.359,0.076c0.012,0.103,0.023,0.202,0.035,0.307c0.33-0.006,0.714,0.001,1.085-0.05
		c0.48,0.123,0.785,0.184,0.992,0.208c-0.004,0.026-0.003,0.052,0.012,0.078c0.091-0.023,0.156-0.039,0.237-0.06
		c0.373,0.004,0.417-0.113,1.808,0.245l-0.105-0.365c0.249-0.764,1.99,0.549,3.324,0.312l-0.468-0.227
		c0.729-0.232,1.976,1.143,2.701,1.273c0.157,0.074-0.253,0.096-0.475,0.137c1.888,0.541,0.261-0.459,1.678-0.506
		c0.253,0.26-0.352,0.637,0.596,0.707c0.468,0.219,2.772-0.756,4.055-0.236c-0.281-0.203-0.559-0.406,0.099-0.537
		c1.004-0.045,2.697,0.807,3.615,0.213c0.127,0.057,0.174,0.109,0.179,0.158c0.77-0.141,2.497-0.203,2.965-0.527
		c0.688,1.262,4.777-0.484,4.742,0.66l2.36-0.002l-0.063,0.115c1.507,0.113,2.044-0.148,2.577-0.41
		c0.347,0.086,0.092,0.188,0.062,0.246c2.202,0.291,2.42,0.223,4.272-0.32l0.189,0.375c0.502-0.211,3.177,0.619,5.342,0.209
		c-0.022,0.043-0.068,0.113-0.24,0.164c2.435-0.408,5.808,1.098,6.711-0.246l1.607-0.314c-2.073-0.129,0.315-0.584-0.536-0.818
		c0.816-0.07,2.105,0.432,1.102,0.49l-0.157-0.07c-0.375,0.701,2.576,0.279,2.515,0.76c4.083,0.012,8.058,0.447,11.882,0.521
		l-0.436-0.555l1.334,0.047c0.349,0.133,0.466,0.436-0.486,0.4c0.498,0.318,1.599-0.24,1.627-0.359
		c1.861,0.242-0.733,0.631-0.163,0.65l0.777-0.031l-0.175-0.066c0.631-0.217,0.688-0.455,1.833-0.42
		c0.723,0.115,0.369,0.342,0.652,0.365c-0.002,0.039,0.096,0.057,0.438,0.018l1.681,0.059l-0.668-0.438
		c0.746-0.207,1.58,0.035,0.81-0.461c1.132,0.764,6.268,0.318,6.965,0.557c1.046-0.307,2.075-0.295,3.351-0.246
		c-0.316-0.094-0.504-0.582,0.596-0.514c-0.406,1.002,2.014,0.455,2.899,1.176c-0.793-0.482,3.128-0.111,1.885-0.795
		c0.917,0.084,0.055,0.375,0.749,0.615c2.188-0.385,4.814,0.264,7.517,0.139c0.043-0.131-0.409-0.334,0.172-0.529l1.422,0.662
		c0.534-0.062,0.495-0.76,1.468-0.299c-0.138-0.111-0.342-0.279,0.017-0.32c5.273,0.646,10.854-0.484,16.08,0.846
		c-0.7-0.27-0.223-0.285,0.327-0.283c-0.353-0.068,0.029-0.326-0.029-0.504c0,0,0.548,0.125,1.102,0.293
		c0.552,0.158,1.105,0.318,1.105,0.318c0.479-0.504,2.318,0.197,2.604-0.246l-0.692,0.002c0.483-0.213,0.223-0.549-0.153-0.917
		l0.158-0.114c-0.076,0.001-0.182,0-0.286-0.009c-0.017-0.016-0.032-0.031-0.049-0.047c0.692,0.062,1.399,0.142,2.214,0.29
		C127.864,39.441,127,39.08,126,38.865c0-0.003,0-0.007,0-0.01c0,0.003,0.004,0.004,0,0.006c-0.191-0.045-0.374-0.085-0.562-0.119
		c-0.109-0.131-0.252-0.27-0.402-0.411c0.692,0.061,1.231,0.141,2.047,0.288c-1.051-0.705-2.082-1.066-3.082-1.281
		c0-0.004,0-0.008,0-0.012c0,0.003,0.172,0.004,0.166,0.007c-0.355-0.083-0.612-0.146-0.962-0.196
		c-0.197-0.026-0.347-0.04-0.543-0.062c0.074-0.001,0.175-0.002,0.257-0.002c-0.353-0.066,0.041-0.324-0.018-0.504
		c0,0,0.554,0.125,1.107,0.293c0.552,0.158,1.108,0.318,1.108,0.318c0.479-0.504,2.319,0.199,2.604-0.246l-0.691,0.002
		c0.495-0.219,0.211-0.565-0.181-0.944l0.158-0.113c0.602,0.06,1.211,0.135,1.906,0.261c-1.051-0.707-1.913-1.067-2.913-1.282
		c0-0.004,0-0.007,0-0.011c0,0.003,0.004,0.004-0.002,0.007c-0.176-0.042-0.343-0.079-0.517-0.11
		c-0.112-0.148-0.273-0.308-0.445-0.47c0.446,0.039,0.921,0.097,1.413,0.167l0.056,0.27l0.302-0.217
		c0.156,0.025,0.299,0.039,0.462,0.068c-0.101-0.067-0.198-0.039-0.297-0.101l0.063,0.04c-0.039,0-0.088,0-0.138,0
		c-0.299,0-0.59-0.59-0.873-0.724c0.01-0.01,0.03-0.276,0.038-0.276h-0.094c-0.128,0-0.255,0.05-0.38,0
		c0.159-0.244-0.184-0.492-0.55-0.838c0.692,0.061,1.414,0.183,2.229,0.33c-0.346-0.232-0.679-0.374-1.004-0.539
		c0.027-0.002,0.049,0.047,0.078,0.047c-0.022,0-0.059,0-0.084,0c-0.242,0-0.479-0.257-0.712-0.35
		c0.032-0.063,0.058-0.143,0.039-0.199c0,0,0.548,0.117,1.103,0.285c0.552,0.16,1.104,0.412,1.104,0.412
		c0.48-0.504,2.319-0.148,2.604-0.148h-0.692c0.557,0,0.128-0.752-0.33-1.184c0.692,0.061,1.562,0.091,2.376,0.238
		C130.7,30.848,130,30.438,129,30.225c0-0.004,0-0.008,0-0.012c0,0.003-0.16,0.004-0.166,0.007
		c-0.355-0.083-0.779-0.146-1.129-0.196c-0.346-0.047-0.728-0.076-1.072-0.109l0.078-0.069c0.194,0.029,0.362,0.048,0.566,0.085
		c-0.07-0.047-0.142-0.086-0.211-0.13c0.071,0.012,0.131,0.017,0.204,0.03c-0.101-0.067-0.199-0.174-0.298-0.235l0.062-0.095
		c-0.039,0-0.087,0-0.138,0c-0.299,0-0.589-0.091-0.872-0.224c0.01-0.011,0.029,0.224,0.037,0.224h-0.092
		c-0.128,0-0.256-0.315-0.382-0.366c0.032-0.05,0.045-0.202,0.039-0.259l0.151-0.073l0.119-0.144l-0.283,0.062
		c-0.009-0.027-0.021-0.062-0.036-0.09l0.032,0.008l-0.041-0.029c-0.008-0.014-0.013-0.028-0.021-0.043l0.062,0.021l-0.094-0.065
		c-0.112-0.158-0.291-0.33-0.477-0.506c0.443,0.039,0.911,0.096,1.399,0.166l0.065,0.319l0.073-0.053l0.691,0.236l-0.451-0.312
		l-0.199,0.047l0.243-0.175c0.139,0.022,0.262,0.034,0.405,0.06c-0.089-0.06-0.174,0.081-0.261,0.026l0.027,0.171
		c-0.017,0-0.04,0-0.06,0c-0.001,0-0.003,0.022-0.004,0.021l0.063-0.021c-0.039,0-0.087,0-0.138,0c-0.187-1-0.371-0.435-0.552-0.529
		c0.606,0.059,1.222,0.048,1.377-0.193l-0.692-0.052c0.477-0.21,0.229-0.567-0.14-0.931c0.13,0.021,0.244,0.019,0.378,0.043
		c-0.034-0.023-0.067-0.048-0.102-0.07c0.035,0.006,0.065,0.004,0.102,0.011c-0.088-0.059-0.172-0.109-0.259-0.163
		c0.602,0.06,1.225,0.134,1.919,0.259c-0.172-0.115-0.341-0.221-0.507-0.318c0.02-0.026,0.037-0.049,0.058-0.052
		c-0.153-0.073-0.274-0.1-0.353-0.103c-0.742-0.403-1.127-0.649-2.127-0.81c0-0.004,0-0.008,0-0.012
		c0,0.003,0.002,0.004-0.004,0.007c-0.16-0.037-0.312-0.071-0.472-0.101c-0.11-0.164-0.294-0.344-0.488-0.527
		c0.692,0.062,1.415,0.142,2.23,0.289c-0.312-0.21-0.613-0.385-0.908-0.539c0.273,0.018,0.497,0.003,0.632-0.075l0.28,0.097
		l-0.209-0.177c0.009-0.009,0.025-0.054,0.032-0.054h-0.062l-0.212-0.114l-0.267,0.077c0.22-0.178,0.089-0.404-0.15-0.663
		c0.588,0.06,1.17,0.147,1.32-0.087l-0.692,0.004c0.077-0.034,0.129-0.071,0.171-0.11c0.356,0.047,0.711,0.092,1.1,0.162
		c-0.396-0.266-0.775-0.479-1.144-0.658c-0.113-0.151-0.28-0.312-0.456-0.479c0.691,0.061,1.413,0.141,2.228,0.288
		c-0.604-0.406-1.17-0.694-1.716-0.91c0.02,0.003,0.036,0.004,0.056,0.008c-0.036-0.024-0.07-0.043-0.105-0.066
		c0.037,0.007,0.068,0.009,0.105,0.016c-0.101-0.067-0.198-0.242-0.297-0.304l0.063-0.163c-0.039,0-0.088,0-0.138,0
		c-0.299,0-0.59-0.09-0.873-0.224c0.01-0.011,0.03,0.224,0.038,0.224h-0.094c-0.128,0-0.255-0.248-0.38-0.298
		c0.122-0.186-0.048-0.488-0.3-0.743c0.109,0.018,0.205-0.006,0.316,0.014c-0.15-0.101-0.296-0.206-0.442-0.293
		c0.656,0.061,1.339,0.13,2.105,0.269c-0.399-0.269-0.782-0.569-1.153-0.749c0.669-0.225,2.129,0.801,2.381-0.199h-0.691
		c0.557,0,0.128-0.573-0.33-1.006c0.165,0.015,0.327,0.068,0.498,0.086c-0.028,0.076,0.012,0.189,0.023,0.151
		c0.058,0.039,0.096,0.054,0.139,0.066l0.031,0.161l0.376-0.269c0.374,0.048,0.75,0.098,1.16,0.172
		c-0.869-0.584-1.662-0.929-2.424-1.154c-0.036-0.142-0.164-0.301-0.329-0.469c0.11,0.019,0.206,0.027,0.319,0.048
		c-0.149-0.101-0.296-0.19-0.441-0.277c0.655,0.061,1.321,0.139,2.087,0.277c-1.051-0.707-1.914-1.067-2.914-1.282
		c0-0.003,0-0.007,0-0.011c0,0.003,0.004,0.004-0.002,0.007c-0.188-0.044-0.366-0.083-0.551-0.117l-0.258-0.181l0.18-0.127
		c-0.177,0.001-0.516,0.003-0.63-0.121l0.067,0.333c-0.346-0.045-0.692-0.078-1.038-0.11c-0.334-0.094-0.683-0.166-1.044-0.176
		c0.055-0.109,0.015-0.232-0.077-0.365c0.149,0.006,0.303,0.017,0.459,0.033c0.211,0.061,0.353,0.101,0.353,0.101
		c0.025-0.026,0.067-0.038,0.1-0.058c0.384,0.032,0.7,0.263,0.821,0.111c0.689,0.04,1.501,0.175,1.683,0.175h-0.073
		c0.022,0,0.059-0.263,0.073-0.286l-0.606-0.116c0.13-0.08,0.182-0.231,0.172-0.334c0.009-0.081-0.021-0.198-0.079-0.292
		l0.062,0.007l-0.095-0.073c-0.034-0.049-0.075-0.102-0.12-0.153c0.072,0.012,0.135,0.016,0.209,0.029
		c-0.158-0.106-0.312-0.202-0.466-0.293c-0.014-0.013-0.028-0.027-0.042-0.041c0.432,0.039,0.889,0.095,1.363,0.164l0.045,0.219
		l0.244-0.176c0.176,0.027,0.335,0.043,0.519,0.077c-0.035-0.023-0.068-0.042-0.103-0.064c0.036,0.006,0.066,0.008,0.103,0.015
		c-0.101-0.068-0.198-0.35-0.297-0.411l0.063-0.271c-0.039,0-0.088,0-0.138,0c-0.218,0-0.431-0.031-0.64-0.137
		c0.713-0.129,2.002,0.391,2.238,0.023l-0.691,0.058c0.557-0.246,0.128-0.625-0.33-1.058c0.161,0.014,0.32,0.041,0.486,0.058
		c-0.002,0.061,0.026,0.121,0.035,0.09c0.244,0.167,0.337,0.06,0.401-0.028c0.417,0.051,0.941,0.111,1.402,0.194
		c-1.051-0.707-1.8-1.065-2.8-1.28c0-0.004,0-0.007,0-0.011c0,0.003-0.109,0.004-0.115,0.007c-0.355-0.083-0.756-0.147-1.105-0.197
		c-0.396-0.053-0.817-0.089-1.213-0.125c-0.313-0.088-0.652-0.159-0.99-0.176c-0.061-0.059-0.129-0.119-0.193-0.18
		c0.692,0.061,1.411,0.141,2.226,0.289c-0.262-0.175-0.515-0.323-0.764-0.459c0.148,0.034,0.297,0.063,0.445,0.101
		c-0.701-0.269-0.224-0.285,0.326-0.284c-0.354-0.067,0.029-0.325-0.03-0.504c0,0,0.548,0.125,1.103,0.293
		c0.552,0.159,1.104,0.318,1.104,0.318c0.48-0.504,2.319,0.199,2.604-0.245l-0.692,0.002c0.557-0.246,0.128-0.654-0.33-1.087
		c0.692,0.062,1.562,0.141,2.376,0.289C130.7,8.745,130,8.384,129,8.169z M11.638,5.368c0.147-0.453,0.823-0.176,1.624,0.075
		c-0.126,0.015-0.233,0.035-0.314,0.056c0.049-0.033,0.067-0.068-0.014-0.113l-0.344,0.136c-0.202-0.001-0.378-0.003-0.532-0.004
		c0.003-0.005,0.006-0.011,0.008-0.015c-0.029,0.004-0.044,0.011-0.068,0.016c-0.103,0-0.208,0.004-0.313,0.011L11.638,5.368z
		 M114.325,7.319c-0.047,0.048-0.054,0.083-0.033,0.112c-1.02-0.022-2.04-0.033-3.061-0.053c0.01-0.005,0.031-0.009,0.038-0.015
		C112.286,7.357,113.305,7.334,114.325,7.319z M95.417,7.068c0.046-0.001,0.094-0.002,0.143-0.003
		c-0.021,0.024-0.039,0.05-0.051,0.077l-0.091-0.001C95.43,7.119,95.43,7.095,95.417,7.068z M95.586,6.975
		c0.017,0.011,0.023,0.022,0.032,0.035c-0.009,0.007-0.02,0.014-0.027,0.022C95.466,7.004,95.503,6.988,95.586,6.975z
		 M118.382,15.395c0,0,0.084,0.019,0.196,0.044l-0.193-0.005C118.384,15.42,118.386,15.407,118.382,15.395z M89.602,36.029
		c0.075-0.11,0.301-0.197,0.805-0.166c-0.023,0.059-0.036,0.111-0.041,0.159C90.085,36.02,89.805,36.013,89.602,36.029z
		 M95.266,36.292c-0.026-0.017-0.042-0.031-0.075-0.05c0.046,0.004,0.069,0.011,0.106,0.017
		C95.289,36.27,95.279,36.281,95.266,36.292z M56.937,35.772c0-0.108,0.008-0.21,0.019-0.311c0.151-0.102,0.244-0.2,0.05-0.279
		c0.002-0.01,0.005-0.019,0.008-0.028c0.502-0.021,1.137,0.146,1.327,0.293c-0.189,0.021-0.376,0.041-0.581,0.064l0.056,0.271
		C57.523,35.779,57.23,35.776,56.937,35.772z M88.316,7.071c0.004-0.003,0.009-0.006,0.011-0.01c0.208-0.012,0.416-0.01,0.624,0.016
		L88.316,7.071z M79.786,6.987c0.022-0.039-0.037-0.108-0.202-0.223c0.007-0.002,0.013-0.005,0.021-0.007
		c0.19,0.1,0.453,0.177,0.771,0.236L79.786,6.987z M109.148,7.338l-0.004,0.004c-0.26-0.004-0.52-0.009-0.78-0.013
		c-0.021-0.01-0.05-0.018-0.07-0.029C108.578,7.316,108.863,7.328,109.148,7.338z M95.191,6.881c0.109,0.01,0.191,0.023,0.256,0.039
		l-0.175,0.015C95.245,6.917,95.227,6.9,95.191,6.881z M90.407,6.5c-0.042,0.103-0.047,0.186-0.034,0.259
		c-0.079,0.007-0.156,0.016-0.225,0.028c0.08,0.002,0.151,0,0.228,0c0.043,0.155,0.206,0.247,0.438,0.309l-1.817-0.018
		c-0.042-0.039-0.074-0.063-0.106-0.089c0.295,0.003,0.601,0.013,0.922,0.025c-0.08-0.023-0.151-0.073-0.196-0.132l0.271,0.032
		c-0.015-0.064,0.109-0.099,0.262-0.126c-0.081-0.002-0.163-0.006-0.244-0.01l0.062-0.252l-0.346,0.121
		C89.711,6.545,89.937,6.472,90.407,6.5z M89.573,6.759c0-0.01,0.001-0.019,0.003-0.028L89.7,6.766
		C89.657,6.764,89.615,6.761,89.573,6.759z M12.391,34.544c0.179,0.043,0.378,0.103,0.594,0.172
		c-0.077,0.043-0.152,0.077-0.234,0.134C12.589,34.742,12.374,34.635,12.391,34.544z M103.594,7.12
		c0.014-0.005,0.02-0.01,0.034-0.015l0.03,0.014C103.637,7.12,103.616,7.12,103.594,7.12z M114.84,36.674
		c1.624-0.018,3.244,0.001,4.844,0.17c-0.01,0.005-0.019,0.011-0.029,0.015c-0.871-0.033-1.739-0.055-2.603-0.083l-1.476-0.038
		C115.33,36.719,115.083,36.697,114.84,36.674z M115.184,7.446c-0.025,0-0.051,0-0.076-0.001c-0.21-0.038-0.344-0.083-0.475-0.13
		c0.263-0.003,0.524-0.005,0.786-0.007l0.094,0.146L115.184,7.446z M117.494,7.335c1.005,0.035,2.004,0.109,2.994,0.249
		l-0.572-0.015C119.122,7.509,118.373,7.425,117.494,7.335z M122.816,7.649c-0.087-0.106,0.144-0.299,0.097-0.442
		c0,0,0.548,0.125,1.102,0.293c0.078,0.022,0.152,0.044,0.229,0.066c-0.082,0.049-0.166,0.09-0.255,0.124
		C123.597,7.675,123.206,7.66,122.816,7.649z M124.765,7.724c-0.175-0.009-0.351-0.019-0.525-0.025
		c0.056-0.032,0.097-0.067,0.092-0.107c0.165,0.048,0.32,0.092,0.448,0.129C124.775,7.721,124.77,7.723,124.765,7.724z
		 M95.703,4.496l-1.517-0.015C94.561,4.352,95.151,4.314,95.703,4.496z M93.879,4.457c0.001,0.006-0.003,0.014-0.006,0.021
		l-0.107-0.001L93.879,4.457z M81.228,2.604l-0.031,0.017C80.546,2.474,80.777,2.532,81.228,2.604z M75.677,3.346
		c1.455-0.121,0.625,0.425,0.878,0.341c2.732,0.141,2.342-1.081,4.606-0.602c0.895,0.412,0.03,0.803,0.227,1.096
		c-1.187,0.141-1.817-0.274-2.62-0.266l0.987,0.201c-0.379,0.13-1.171,0.224-1.602,0.103c0.091,0.045,0.229,0.08,0.402,0.108
		l-1.899-0.019c-0.613-0.009-1.227-0.03-1.841-0.043c-0.151-0.04-0.345-0.037-0.551-0.013c-0.311-0.007-0.621-0.014-0.932-0.022
		c0.013-0.042,0.043-0.095,0.105-0.169c-0.071,0.074-0.147,0.119-0.224,0.166c-0.091-0.002-0.182-0.004-0.272-0.006
		C73.486,3.836,74.473,3.508,75.677,3.346z M66.733,3.732c-0.047,0.11,0.09,0.249,0.192,0.338c-0.3-0.008-0.599-0.016-0.899-0.023
		c-0.042-0.025-0.084-0.05-0.129-0.075C66.177,3.857,66.47,3.768,66.733,3.732z M58.865,2.924c0.144,0.041,2.152,0.576,2.616,0.866
		c0.082,0.057,0.127,0.115,0.146,0.175c-0.477-0.008-0.954-0.01-1.43-0.017l-0.021-0.571l-0.179,0.569
		c-0.466-0.007-0.933-0.011-1.399-0.017C58.598,3.486,58.684,3.095,58.865,2.924z M51.988,3.045l1.296-0.46
		C52.941,2.859,52.331,3.5,51.652,3.5h-1.191c0.096,0,0.25-0.205,0.856-0.297L49.85,3.528c0.547-0.371,1.169-0.646,1.815-0.774
		L51.988,3.045z M37.083,3.345c-0.125,0.044-0.261,0.09-0.406,0.135l0.45-0.298C37.102,3.23,37.09,3.286,37.083,3.345z
		 M15.955,3.157c-0.063-0.009-0.13-0.018-0.186-0.03l0.125-0.023C15.93,3.118,15.941,3.138,15.955,3.157z M14.395,2.562
		c0.108,0.091,0.259,0.199,0.286,0.29c-0.088,0.047-0.174,0.088-0.27,0.153C14.154,2.836,13.749,2.664,14.395,2.562z M8.7,34.624
		c0.017,0.004,0.036,0.009,0.052,0.013c-0.059,0.011-0.099,0.021-0.141,0.032c0.02-0.013,0.029-0.027,0.035-0.041
		C8.664,34.626,8.682,34.626,8.7,34.624z M77.388,40.764l-0.263-0.098C77.722,40.568,77.554,40.66,77.388,40.764z M126.491,29.902
		c-0.016-0.001-0.031-0.003-0.047-0.005c-0.387-0.108-0.794-0.188-1.216-0.175c-0.024-0.024-0.048-0.048-0.072-0.071
		c0.417,0.039,0.858,0.094,1.316,0.16L126.491,29.902z M126.547,24.481l0.244,0.084l-0.389,0.001
		C126.462,24.54,126.509,24.512,126.547,24.481z"/>
	<path fill="#7FAF16" d="M132.332,7.762c0.353,0.242,0.395-0.098,0.482-0.111C132.142,7.331,132.306,7.843,132.332,7.762z"/>
	<path fill="#7FAF16" d="M126.343,10.5c-0.176,0-0.459,0-0.727,0C125.747,10.5,125.96,10.5,126.343,10.5z"/>
	<polygon fill="#7FAF16" points="129.219,11.012 129.946,11.261 129.494,10.948 	"/>
	<path fill="#7FAF16" d="M130.739,10.625l0.046,0.228c-0.511-0.188-0.377,0.236-0.354,0.161c0.226,0.154,0.32,0.072,0.385-0.012
		l0.025,0.125l0.529-0.381C131.193,10.747,130.853,10.749,130.739,10.625z"/>
	<polygon fill="#7FAF16" points="127.593,14.2 127.318,14.264 128.045,14.513 	"/>
	<path fill="#7FAF16" d="M129.469,13.998c-0.178,0.001-0.518,0.003-0.631-0.121l0.102,0.502L129.469,13.998z"/>
	<path fill="#7FAF16" d="M126.404,15.356l0.012,0.056c-0.003-0.003-0.009-0.004-0.012-0.007l0.103,0.502l0.529-0.381
		c-0.02,0-0.045,0-0.067,0l0.067-0.049C126.858,15.478,126.518,15.479,126.404,15.356z"/>
	<path fill="#7FAF16" d="M129.657,15.597c0.354,0.242,0.396-0.098,0.483-0.111C129.468,15.166,129.632,15.678,129.657,15.597z"/>
	<path fill="#7FAF16" d="M127.997,10.965c0.354,0.242,0.396-0.098,0.483-0.111C127.808,10.534,127.972,11.046,127.997,10.965z"/>
	<path fill="#7FAF16" d="M127.997,15.597c0.354,0.242,0.396-0.098,0.483-0.111C127.808,15.166,127.972,15.678,127.997,15.597z"/>
	<path fill="#7FAF16" d="M127.965,20.23c-0.009,0.066,0.021,0.13,0.031,0.098c0.354,0.242,0.396-0.098,0.483-0.111
		c-0.015-0.007-0.024-0.009-0.038-0.015c0.013-0.014,0.024-0.033,0.038-0.035C128.007,19.942,127.95,20.127,127.965,20.23z"/>
	<path fill="#7FAF16" d="M127.965,25.038c-0.001,0.009-0.003,0.017-0.002,0.026c-0.185-0.002-0.433-0.017-0.527-0.121l0.102,0.502
		l0.439-0.316c0.008,0.013,0.016,0.02,0.02,0.006c0.354,0.242,0.396-0.098,0.483-0.109c-0.016-0.007-0.024-0.009-0.039-0.016
		c0.013-0.014,0.025-0.033,0.039-0.035C128.007,24.751,127.95,24.936,127.965,25.038z"/>
	<path fill="#7FAF16" d="M127.997,23.559c0.354,0.242,0.396-0.098,0.483-0.111C127.808,23.127,127.972,23.641,127.997,23.559z"/>
	<path fill="#7FAF16" d="M129.657,21.231c0.354,0.242,0.396-0.098,0.483-0.111C129.467,20.8,129.631,21.312,129.657,21.231z"/>
	<path fill="#7FAF16" d="M128.064,24.094l0.103,0.502l0.528-0.381C128.518,24.217,128.178,24.219,128.064,24.094z"/>
	<path fill="#7FAF16" d="M129.028,22.08c0.354,0.242,0.396-0.098,0.483-0.111C128.839,21.649,129.003,22.162,129.028,22.08z"/>
	<polygon fill="#7FAF16" points="126.643,25.58 126.191,25.266 125.916,25.33 	"/>
	<path fill="#7FAF16" d="M130.43,17.174c0.354,0.242,0.396-0.098,0.483-0.111C130.242,16.743,130.406,17.255,130.43,17.174z"/>
	<polygon fill="#7FAF16" points="127.318,20.424 128.045,20.673 127.593,20.36 	"/>
	<path fill="#7FAF16" d="M128.838,20.037l0.102,0.502l0.529-0.381C129.292,20.159,128.952,20.161,128.838,20.037z"/>
	<path fill="#7FAF16" d="M129.657,25.186c0.354,0.242,0.396-0.098,0.483-0.111C129.468,24.754,129.632,25.266,129.657,25.186z"/>
	<path fill="#7FAF16" d="M128.48,36.82c-0.672-0.32-0.508,0.191-0.483,0.111C128.35,37.174,128.392,36.834,128.48,36.82z"/>
	<path fill="#7FAF16" d="M129.657,38.459c0.354,0.242,0.396-0.098,0.483-0.111C129.468,38.027,129.632,38.539,129.657,38.459z"/>
	<path fill="#7FAF16" d="M26.572,40.223c0.263-0.053,0.376-0.117,0.369-0.189C26.671,40.082,26.518,40.141,26.572,40.223z"/>
	<path fill="#7FAF16" d="M123.669,41.5c-0.177,0-0.459,0-0.728,0C123.072,41.5,123.286,41.5,123.669,41.5z"/>
	<polygon fill="#7FAF16" points="126.544,41.709 127.271,41.957 126.82,41.645 	"/>
	<path fill="#7FAF16" d="M128.167,41.824l0.528-0.381c-0.177,0-0.517,0.002-0.631-0.121L128.167,41.824z"/>
	<path fill="#7FAF16" d="M129.657,34.449c0.354,0.242,0.396-0.098,0.483-0.111C129.468,34.018,129.632,34.531,129.657,34.449z"/>
	<path fill="#7FAF16" d="M123.669,37.5c-0.177,0-0.459,0-0.728,0C123.072,37.5,123.286,37.5,123.669,37.5z"/>
	<polygon fill="#7FAF16" points="126.544,37.699 127.271,37.947 126.82,37.635 	"/>
	<path fill="#7FAF16" d="M128.695,37.434c-0.177,0-0.517,0.002-0.631-0.121l0.103,0.502L128.695,37.434z"/>
	<path fill="#7FAF16" d="M127.997,28.24c0.049,0.033,0.078,0.034,0.116,0.048l0.054,0.263l0.528-0.381
		c-0.067,0-0.158-0.002-0.251-0.008c0.012-0.013,0.023-0.031,0.036-0.033c-0.028-0.014-0.048-0.018-0.073-0.028
		c0.025-0.036,0.049-0.066,0.073-0.069c-0.521-0.249-0.539,0.002-0.51,0.09C127.95,28.195,127.986,28.277,127.997,28.24z"/>
	<path fill="#7FAF16" d="M127.997,32.873c0.354,0.242,0.396-0.098,0.483-0.111C127.808,32.441,127.972,32.953,127.997,32.873z"/>
	<path fill="#7FAF16" d="M132.332,29.816c0.353,0.242,0.395-0.098,0.482-0.109C132.142,29.387,132.306,29.898,132.332,29.816z"/>
	<polygon fill="#7FAF16" points="129.494,33.002 129.219,33.066 129.946,33.316 	"/>
	<path fill="#7FAF16" d="M130.84,33.182l0.529-0.381c-0.177,0.002-0.517,0.004-0.631-0.121L130.84,33.182z"/>
</g>
<g>
</g>
<g>
</g>
<g>
</g>
<g>
</g>
<g>
</g>
<g>
</g>
<g>
</g>
<g>
</g>
<g>
</g>
<g>
</g>
<g>
</g>
<g>
</g>
<g>
</g>
<g>
</g>
<g>
</g>
</svg>
